PathFileType	4	(X/Y/Z)	C:/Users/beibeiliu/ov580/test_trc/User2\sequence.37_training_dense_right.trc
DataRate	CameraRate	NumFrames	NumMarkers	Units	OrigDataRate	OrigDataStartFrame	OrigNumFrames
120	120	16	19	mm	120	313	500
Frame#	Time	ThumbCMC			ThumbMCP			ThumbIP			ThumbTip			IndexMCP			IndexPIP			IndexTip			MiddleMCP			MiddlePIP			MiddleTip			RingMCP			RingPIP			RingTip			PinkyMCP			PinkyPIP			PinkyTip			BackHand1			BackHand2			BackHand3	
		X0	Y0	Z0	X1	Y1	Z1	X2	Y2	Z2	X3	Y3	Z3	X4	Y4	Z4	X5	Y5	Z5	X6	Y6	Z6	X7	Y7	Z7	X8	Y8	Z8	X9	Y9	Z9	X10	Y10	Z10	X11	Y11	Z11	X12	Y12	Z12	X13	Y13	Z13	X14	Y14	Z14	X15	Y15	Z15	X16	Y16	Z16	X17	Y17	Z17	X18	Y18	Z18	
312	2.6	66.9468	18.9618	85.9183	39.5417	24.476	63.137	15.8485	21.4833	33.7894	6.60149	2.74925	13.1974	72.7305	3.91505	-0.290235	47.7024	-6.51913	-18.2458	18.3183	-13.23	-11.4382	80.8133	-18.3197	-4.97937	52.1604	-25.2865	-28.5915	16.3097	-30.748	-22.7663	79.7268	-43.6998	-0.935752	55.6247	-46.505	-18.6011	18.9058	-43.4832	-14.7466	75.9069	-61.7524	17.0383	51.6215	-64.4458	-2.42385	20.0577	-63.6515	-6.85505	106.262	-40.2203	59.3313	111.888	-33.7552	87.8077	105.05	0.780627	69.8391	
313	2.60833	65.9612	17.8726	82.6599	35.2017	25.7809	63.6242	12.5117	20.8234	35.7303	1.03083	3.05342	13.5156	73.0476	1.5413	2.45618	45.9301	-2.32657	-18.8271	16.4143	-11.903	-12.4079	79.9263	-22.3713	-5.81386	50.8873	-27.1131	-27.4948	14.138	-30.5427	-23.4911	80.5442	-45.1971	2.91743	55.5385	-48.3135	-19.0959	20.7487	-45.7899	-16.5787	74.8797	-63.3813	17.2681	50.3569	-64.4606	-3.73419	23.0004	-66.1458	-8.13964	102.701	-36.6964	55.9761	112.933	-37.8647	92.1678	103.677	-1.84908	71.0763	
314	2.61667	64.0365	20.5619	86.3845	34.2505	20.7023	65.5407	11.6807	11.6428	33.9203	0.999217	-4.71659	15.0184	71.9744	3.01287	-0.640483	48.881	-2.28881	-19.6237	17.2447	-13.3434	-13.0905	78.2106	-20.2245	-5.12852	46.1022	-25.8357	-27.6051	13.8456	-34.8784	-20.6203	77.7258	-44.6038	1.25133	53.7062	-46.0079	-17.7328	17.0235	-43.5679	-14.0149	74.5027	-60.9311	20.2227	50.5948	-65.4882	-1.8461	22.617	-61.3753	-8.15567	102.633	-40.5722	56.2748	110.153	-33.8015	89.0187	102.222	0.0133001	71.447	
315	2.625	64.8644	15.8783	86.4295	33.0912	17.2382	64.6458	11.0348	7.25248	36.3531	-2.04735	-8.61441	14.9356	72.8614	0.331181	1.34844	51.4659	-7.05363	-18.7215	13.828	-13.7361	-14.2819	77.884	-20.428	-3.35651	46.1997	-29.8275	-26.2498	12.2724	-31.2033	-17.6639	75.5557	-47.4341	-0.742827	51.9007	-48.9339	-16.3827	14.5326	-43.9289	-9.9317	72.4153	-65.3681	16.6807	47.6133	-66.5663	-0.967369	16.1364	-65.0915	-4.81193	102.813	-40.1892	55.9994	110.184	-37.5228	90.8682	104.229	-2.73081	69.4394	
316	2.63333	64.9547	15.5899	85.1563	34.4842	12.335	60.7537	10.999	5.32381	36.364	0.324788	-14.6259	14.0917	71.3979	0.689102	-1.7438	46.3221	-6.43964	-20.3608	15.7476	-16.6064	-14.0248	75.7895	-20.9049	-5.25876	48.4336	-29.5037	-25.0906	10.3229	-35.5653	-13.6502	73.4098	-46.5674	0.688164	47.214	-52.164	-16.0228	11.2569	-49.213	-4.999	70.5511	-66.4185	16.9522	48.9764	-69.5613	0.205269	15.5943	-66.3628	-3.51351	102.902	-42.073	60.6178	112.625	-39.461	92.8828	103.476	-2.2533	68.9989	
317	2.64167	64.0685	12.787	81.1263	32.6557	12.8741	56.4776	10.3447	0.306518	28.9487	6.47879	-20.8677	15.6842	73.3839	-2.79638	-1.67434	50.6571	-9.80659	-20.3982	18.6462	-16.0274	-15.5909	75.5689	-26.4575	-7.80881	44.6779	-34.6506	-23.6475	8.92491	-36.184	-8.46131	74.4637	-46.157	4.03841	43.3542	-53.9442	-14.3912	10.926	-46.6945	-0.593905	71.3966	-69.1361	19.4423	46.3128	-70.31	0.330404	17.094	-61.8944	-0.639995	103.055	-46.0127	55.878	112.269	-42.6663	89.8361	102.515	-6.03039	68.2581	
318	2.65	64.7627	12.0423	78.4674	33.6534	11.2232	59.1754	12.2996	-3.51368	29.3907	5.39042	-23.348	15.2138	73.7102	-6.4782	-1.08012	47.9025	-14.6464	-20.2128	14.9498	-19.9482	-13.1097	74.6318	-29.489	-6.67203	44.4983	-32.7423	-23.203	6.4507	-35.7202	-6.07974	72.4066	-50.8694	3.81686	41.2056	-51.9798	-13.6546	9.68538	-44.6011	2.04848	70.022	-71.162	19.2057	44.2614	-75.3426	1.08791	15.2566	-63.4541	0.465039	101.175	-42.7897	57.4574	109.124	-42.0365	88.5663	102.72	-10.3185	67.8829	
319	2.65833	63.7408	12.565	82.6355	33.1846	8.48229	56.9816	10.9582	-3.30532	29.7139	1.84989	-24.1475	13.4464	73.7692	-8.4084	1.08052	49.8902	-14.6172	-19.6902	13.1293	-16.8256	-12.8124	73.8046	-27.7785	-4.50477	39.0213	-34.6144	-22.4723	7.58397	-35.2799	-7.16427	68.7912	-49.7877	-0.524426	40.3276	-57.0822	-12.0717	8.08677	-48.5968	6.16602	68.633	-71.5196	21.776	43.4228	-74.729	2.34726	15.5886	-65.8667	0.590354	100.322	-44.9235	56.2214	110.087	-45.2867	90.7959	102.493	-10.4227	69.0399	
320	2.66667	63.8366	11.5449	76.7838	32.9179	8.52747	57.6827	11.0079	-5.2615	31.702	2.49162	-26.0241	13.8334	72.1752	-11.0025	-1.05864	46.1584	-13.9992	-21.7092	14.2431	-19.2749	-12.9498	71.056	-30.4808	-8.1378	39.9984	-36.197	-22.9568	5.02699	-36.1377	-4.77458	67.8914	-55.8668	0.848442	37.8222	-59.1336	-10.7374	7.06116	-49.5687	6.31256	68.0066	-70.4093	21.4517	42.9654	-74.3995	2.63912	10.8776	-67.2763	1.28727	99.2253	-45.3867	56.8982	107.706	-45.2144	90.4168	103.061	-9.29433	70.3003	
321	2.675	63.2918	11.2697	80.1336	32.5158	8.40555	57.9152	8.61256	-4.11258	30.3518	2.29432	-28.853	13.2469	71.502	-10.251	-0.96757	43.2507	-18.5046	-20.6264	13.5017	-19.6724	-12.1483	70.1152	-36.3497	-7.65804	38.4551	-41.0644	-21.1996	3.65214	-40.282	-3.06636	67.4425	-52.7217	2.19643	36.917	-58.9369	-11.3893	9.92737	-49.2925	3.15719	64.5508	-73.0673	18.1216	39.8618	-76.9735	2.08827	9.78471	-66.7143	1.81943	100.454	-47.4773	56.8863	109.292	-45.1166	87.6206	102.096	-14.3451	67.0824	
322	2.68333	63.0961	10.5645	77.5889	33.7654	5.2938	57.1202	9.11949	-5.81661	30.6759	2.96145	-27.1781	17.7793	71.4143	-13.2303	1.04025	43.4573	-17.9151	-21.2266	13.9209	-23.5928	-11.206	69.2662	-33.5558	-7.34622	36.448	-38.894	-22.4223	1.08424	-36.3388	-2.17057	65.314	-56.7436	0.847644	34.5849	-58.6955	-10.6893	6.10682	-48.8965	5.41279	63.796	-77.6452	19.6084	40.4987	-75.5326	3.24014	6.85297	-68.8833	3.77797	98.3007	-53.4949	56.4055	108.013	-48.9347	86.6962	101.787	-16.157	70.5172	
323	2.69167	62.6593	9.26438	80.3566	32.2023	5.56337	56.5736	9.63013	-5.1218	35.6321	-0.497029	-27.389	16.393	70.2748	-12.571	-1.3962	43.4114	-20.0327	-20.6146	9.9457	-21.2799	-10.7713	70.733	-35.8284	-4.31865	34.4035	-37.8065	-22.1675	3.28925	-36.476	-5.50598	66.9436	-56.5114	3.79829	35.9874	-55.1251	-12.1457	6.71393	-51.2947	2.79913	62.7539	-76.4927	20.2582	37.8926	-73.5856	1.34026	6.89831	-67.4755	1.04855	97.0725	-48.5356	56.8571	106.828	-46.4509	86.765	102.381	-13.0122	71.1851	
324	2.7	60.7142	9.53802	78.8399	28.9796	8.35575	56.1138	7.25076	-5.88341	34.8321	-3.29935	-25.7006	16.9293	69.3045	-8.68685	-0.741246	41.6152	-15.1904	-21.8011	7.8179	-19.9491	-11.971	68.8544	-32.3788	-5.36719	34.3038	-36.1346	-23.1379	4.05484	-35.2401	-8.67188	65.6093	-54.1907	2.33351	37.4981	-58.3135	-13.0526	6.14033	-47.5526	-0.315964	61.3345	-71.3919	18.8939	35.625	-74.0119	1.85147	9.85906	-66.6922	1.36577	93.4526	-52.0298	59.5183	104.249	-47.5837	87.6639	98.155	-12.7242	67.3019	
325	2.70833	60.8898	10.9121	83.3889	27.47	8.83247	59.215	3.82672	-3.34586	36.0241	-5.96084	-24.6481	17.2899	67.3341	-5.5796	-1.81769	44.3551	-14.4791	-19.9186	10.7099	-17.535	-12.8303	68.0386	-28.7484	-6.33178	35.9018	-33.0767	-24.1328	3.68516	-34.3091	-10.1115	64.8937	-49.3047	2.76089	39.5863	-52.05	-13.8059	4.45217	-47.2978	-0.0692541	59.5397	-72.7939	19.028	34.4762	-71.241	0.457288	4.95358	-60.9413	2.11865	93.0601	-48.6684	56.8659	102.703	-47.8476	86.6563	98.4185	-10.5769	67.7957	
326	2.71667	60.2729	13.2702	85.3207	27.3605	7.27942	60.8257	4.87772	-5.1979	35.2617	-3.79929	-24.2952	20.9766	66.937	-8.67757	-0.866741	44.5778	-12.6621	-19.2336	11.2048	-12.6601	-14.2974	70.2218	-28.7972	-2.973	35.9456	-33.7215	-24.4879	1.85714	-31.2015	-11.3752	65.7281	-49.6223	5.04451	38.2047	-54.6308	-14.6929	5.57657	-45.8445	-2.80665	59.8813	-71.5059	18.7059	32.8226	-69.1263	0.491877	7.07368	-62.0525	-1.11527	92.7232	-45.8603	58.2803	104.298	-48.4106	89.4329	99.4216	-14.5507	72.4454	
327	2.725	61.0926	8.35269	82.8051	26.253	10.941	64.1475	5.41758	-3.32721	41.083	-3.48163	-26.0167	21.4243	69.1143	-3.67503	2.31648	44.0925	-10.415	-19.0479	9.42352	-11.4486	-13.9968	69.7403	-29.0016	-4.82913	41.1235	-30.4294	-24.9173	2.30439	-31.1156	-9.83633	64.8757	-51.0017	2.62571	39.9817	-48.8494	-14.7355	6.49051	-43.5164	-3.21624	60.0955	-69.8177	19.8803	34.5441	-69.0611	1.29872	4.18114	-58.004	2.19528	93.6975	-49.8554	58.3045	105.376	-44.1816	88.2017	99.6453	-13.4205	69.805	
